<svg xmlns="http://www.w3.org/2000/svg" width="24" height="24">
    <path fill="#0F0F0F" fill-rule="evenodd" d="M23.319 17.613l-.314 1.568-3.995-.8.314-1.568 3.995.8zm-4.152-4.015h4.794v1.6h-4.794v-1.6zm.157-1.615l-.314-1.568 3.995-.8.314 1.568-3.995.8zM6.909 9.558c-.814-.405-1.328-1.237-1.325-2.147V0h9.588v7.409c0 .915-.508 1.737-1.325 2.147l-1.072.537v1.106h3.69l1.104 2.21v1.978l-1.104 2.209h-4.489v.845c0 .371.088.743.253 1.073l.861 1.724-1.43.717-.861-1.726c-.275-.552-.421-1.17-.421-1.788v-.844H9.274l-2.348 4.699C6.41 23.341 5.344 24 4.18 23.996c-.195 0-.388-.023-.576-.07l-1.817-.456C.731 23.209.028 22.273 0 21.234v-.22c.009-.137.025-.274.059-.411.042-.172.103-.338.182-.495l3.787-7.582c.404-.815 1.235-1.33 2.143-1.327h1.81v-1.104l-1.072-.537zM13.574 1.6H7.182v2.768c1.027.612 1.77.251 2.838-.283.981-.49 2.15-1.07 3.554-.609V1.6zM6.172 12.797c-.305 0-.579.171-.714.443L4.08 15.998h1.504v1.599H3.281L1.67 20.824c-.19.382-.036.846.346 1.037.051.025.104.045.159.058l1.817.455c.061.015.124.022.188.021.561 0 1.066-.312 1.318-.814l2.346-4.699c.269-.544.825-.888 1.431-.884h6.203l.493-.99v-1.22l-.494-.991h-1.104v1.6h-1.598v-1.6H6.172zm3.407-3.692v2.093h1.598V9.105l1.955-.979c.272-.135.443-.412.442-.715V5.232c-1.027-.612-1.771-.251-2.839.283-.729.364-1.562.783-2.518.783-.329 0-.675-.057-1.035-.174V7.41c-.001.303.17.58.441.715l1.956.98z"/>
</svg>
