<svg xmlns="http://www.w3.org/2000/svg" width="20" height="24">
    <path fill="#0F0F0F" fill-rule="evenodd" d="M0 4.965C0 2.734 1.73 1.043 3.643.235c.079-.034.163-.057.25-.067.483-.057.968.345.964.799v3.198h1.714V.967C6.569.7 6.722.436 6.963.29c.241-.145.562-.167.823-.055 1.913.808 3.643 2.499 3.643 4.73 0 1.955-1.166 3.622-2.858 4.547V14.8c1.692.926 2.858 2.6 2.858 4.556 0 2.168-1.636 3.811-3.484 4.644H6.942c-.223-.147-.37-.392-.371-.647v-3.198H4.857v3.198c-.001.255-.148.5-.371.647H3.483C1.635 23.167 0 21.524 0 19.356c0-1.956 1.166-3.63 2.857-4.556V9.512C1.166 8.587 0 6.92 0 4.965zm4.071 10.993c-1.387.586-2.357 1.879-2.357 3.398 0 1.001.592 1.875 1.429 2.531v-2.531c0-.419.408-.8.857-.8h3.428c.449 0 .858.381.858.8v2.531c.836-.656 1.428-1.53 1.428-2.531 0-1.519-.97-2.812-2.357-3.398-.296-.127-.499-.421-.5-.725V9.087c-.002-.306.202-.605.5-.733 1.387-.586 2.357-1.87 2.357-3.389 0-1.001-.592-1.883-1.428-2.54v2.54c0 .418-.409.799-.858.799H4c-.449 0-.857-.381-.857-.799v-2.54c-.837.657-1.429 1.539-1.429 2.54 0 1.519.97 2.803 2.357 3.389.299.128.503.427.5.733v6.146c-.001.304-.204.598-.5.725zm9.072 7.395V11.627c-.003-.392.349-.758.768-.799.029-.002.059-.002.089 0h.286V5.689l-.768-1.432c-.104-.195-.117-.429-.036-.633L14.625.693c.108-.281.397-.493.714-.525h2.375c.348.001.684.22.804.525l1.143 2.931c.081.204.067.438-.036.633l-.768 1.432v5.139h.286c.449 0 .857.381.857.799v11.726c0 .263-.169.499-.4.647h-6.057c-.231-.148-.4-.384-.4-.647zm3.973-21.586h-1.089l-.813 2.074.697 1.299c.059.111.089.234.089.358v5.33h1.143v-5.33c-.001-.124.03-.247.089-.358l.696-1.299-.812-2.074zm-2.259 20.787h3.429V12.427h-3.429v10.127z"/>
</svg>
