<svg xmlns="http://www.w3.org/2000/svg" width="24" height="24">
    <path fill="#0F0F0F" fill-rule="evenodd" d="M18.565 4.132c1.746.425 3.039 2.015 3.039 3.868 0 1.322-.656 2.544-1.729 3.286-.286 1.922-1.049 3.687-2.182 5.064l2.591 1.161c.181-.402.651-.586 1.056-.403l2.189.98c.193.087.345.247.421.445.036.095.051.196.05.296v.021c-.004.101-.025.201-.067.295l-1.96 4.381c-.133.297-.424.474-.73.474-.109 0-.219-.023-.326-.07l-2.188-.981c-.194-.087-.345-.246-.421-.445-.075-.198-.069-.418.017-.612l.001-.001-2.227-.996c-.439.437-1.045.704-1.687.704H9.616c-.64 0-1.243-.265-1.685-.705l-2.229.997v.001c.087.194.093.414.017.612-.075.199-.227.358-.42.445l-2.189.981c-.106.047-.217.07-.325.07-.306 0-.597-.177-.731-.474L.095 19.145c-.086-.193-.093-.414-.017-.612s.227-.358.421-.445l2.188-.98c.405-.183.875.001 1.056.403l2.591-1.161c-1.132-1.377-1.895-3.142-2.181-5.064-1.074-.743-1.73-1.964-1.73-3.286 0-1.846 1.283-3.431 3.038-3.866C6.955 1.545 9.373 0 12.014 0c2.64 0 5.058 1.544 6.551 4.132zM20.006 8c0-1.192-.886-2.213-2.06-2.376-.124-.02-.231-.024-.338-.024-1.322 0-2.397 1.076-2.397 2.4 0 1.323 1.075 2.4 2.397 2.4.405 0 .793-.099 1.153-.295.767-.421 1.245-1.228 1.245-2.105zm.835 14.143l1.306-2.921-.73-.327-1.306 2.921.73.327zm-1.862-1.713l.651-1.459-2.821-1.265V19.2c0 .085-.005.17-.013.254l2.183.976zM8.817 16.471V19.2c0 .125.025.232.079.336.14.289.419.464.72.464h4.796c.301 0 .58-.175.711-.446.005-.01.007-.019.011-.029.051-.1.077-.204.077-.325V16c0-1.324-1.076-2.4-2.398-2.4h-1.598c-1.322 0-2.398 1.076-2.398 2.4v.471zm-6.206 2.424l-.73.327 1.306 2.921.73-.327-1.306-2.921zm1.787.076l.651 1.459 2.183-.976c-.009-.084-.013-.169-.013-.254v-1.494l-2.821 1.265zM6.419 5.6c-.106 0-.213.004-.314.021C4.908 5.787 4.022 6.808 4.022 8c0 .876.477 1.683 1.246 2.105.36.196.747.295 1.151.295 1.323 0 2.398-1.077 2.398-2.4 0-1.324-1.075-2.4-2.398-2.4zm5.595-4c-1.776 0-3.448.92-4.645 2.514.173.042.338.104.502.169.037.014.078.023.115.038.222.096.433.212.633.345.058.038.108.084.163.126.138.101.271.207.394.325.063.061.12.126.179.191.104.113.202.229.292.353.054.075.104.151.154.23.08.129.152.263.217.401.04.083.079.163.113.248.06.154.106.314.148.476.019.078.045.152.06.231.047.245.076.495.076.753 0 2.205-1.792 4-3.996 4-.171 0-.341-.011-.508-.033h-.008c.286 1.147.776 2.199 1.43 3.078.043-.172.105-.337.169-.5.014-.037.022-.077.038-.114.095-.223.212-.435.345-.635.037-.055.081-.104.121-.157.103-.14.21-.275.33-.4.06-.063.125-.119.189-.177.113-.104.23-.203.355-.294.074-.054.15-.104.228-.153.129-.081.263-.152.401-.218.083-.039.163-.079.248-.113.154-.06.313-.106.475-.147.078-.02.152-.046.231-.061.244-.047.494-.076.752-.076h1.598c.257 0 .507.029.751.076.079.015.154.041.232.061.162.041.321.087.474.148.085.033.166.073.248.112.139.066.272.137.401.218.078.049.154.099.229.153.125.091.241.19.355.294.064.058.129.114.189.177.12.125.227.26.33.4.039.053.084.102.121.157.132.201.249.412.345.636.015.036.023.076.038.113.064.163.126.328.168.5.654-.879 1.145-1.93 1.43-3.078h-.007c-.168.022-.337.033-.509.033-2.203 0-3.996-1.795-3.996-4 0-.258.029-.508.076-.753.015-.079.041-.154.061-.231.042-.162.087-.322.148-.475.034-.086.073-.166.112-.249.066-.138.138-.272.218-.401.049-.078.1-.155.154-.229.09-.125.188-.241.291-.354.06-.064.116-.13.18-.191.123-.118.256-.223.393-.325.056-.041.106-.088.164-.126.2-.133.411-.249.633-.345.037-.015.077-.024.115-.038.164-.065.329-.127.502-.169C15.461 2.52 13.79 1.6 12.014 1.6zm-1.599 13.6h3.197c.442 0 .8.358.8.8 0 .441-.358.8-.8.8h-3.197c-.441 0-.799-.359-.799-.8 0-.442.358-.8.799-.8zm0 2.4h3.197c.442 0 .8.358.8.8 0 .441-.358.8-.8.8h-3.197c-.441 0-.799-.359-.799-.8 0-.442.358-.8.799-.8z"/>
</svg>
