<svg xmlns="http://www.w3.org/2000/svg" width="24" height="24">
    <path fill="#0F0F0F" fill-rule="evenodd" d="M7.535 13.396c0-3.227 2.634-5.86 5.86-5.86 3.227 0 5.861 2.633 5.861 5.86 0 3.226-2.634 5.86-5.861 5.86-3.226 0-5.86-2.634-5.86-5.86zm10.046 0c0-2.322-1.864-4.186-4.186-4.186s-4.186 1.864-4.186 4.186 1.864 4.186 4.186 4.186 4.186-1.865 4.186-4.186zm-3.07 1.927c.15-.086.319-.117.48-.105.054.005.105.013.157.027.208.055.391.185.506.383.229.398.092.922-.305 1.151-.398.23-.913.084-1.143-.314-.229-.397-.092-.912.305-1.142zm1.954-2.764c.459 0 .837.378.837.837 0 .459-.378.837-.837.837-.459 0-.837-.378-.837-.837 0-.459.378-.837.837-.837zm-1.954-1.099c-.397-.23-.534-.745-.305-1.142.115-.199.299-.337.506-.393.052-.014.103-.023.157-.026.162-.01.331.027.48.113.397.23.534.745.305 1.143-.23.397-.745.534-1.143.305zm.838 1.936c0 1.069-.885 1.953-1.954 1.953s-1.953-.884-1.953-1.953.884-1.953 1.953-1.953 1.954.884 1.954 1.953zm-1.954-.279c-.164 0-.279.115-.279.279 0 .164.115.279.279.279.164 0 .279-.115.279-.279 0-.164-.115-.279-.279-.279zm-1.116-1.657c-.398.23-.913.092-1.142-.305-.23-.398-.093-.913.305-1.143.149-.086.318-.123.479-.113.054.003.105.012.157.026.208.056.391.194.506.393.23.397.093.912-.305 1.142zm-1.954 2.773c-.459 0-.837-.378-.837-.837 0-.459.378-.837.837-.837.46 0 .838.378.838.837 0 .459-.378.837-.838.837zm1.317 1.012c.052-.014.103-.022.157-.027.162-.012.331.019.48.105.398.23.535.745.305 1.143-.229.397-.745.543-1.142.313-.398-.229-.535-.753-.305-1.151.114-.198.298-.328.505-.383zM13.395 24C7.737 24 3.101 19.54 2.808 13.954H.863c-.421.001-.81-.364-.837-.785C.011 12.924 0 12.675 0 12.42v-.002C0 6.175 4.876 1.044 11.171.154c.543-.077 1.148-.123 1.858-.153h.087c.279 0 .837.279.837.837v1.971c2.171.113 4.175.875 5.809 2.102.351.265.43.826.165 1.177-.265.352-.825.431-1.177.166-1.355-1.018-2.999-1.66-4.797-1.77v.819c0 .439-.398.837-.837.837-3.639 0-6.697 2.926-6.697 6.279v.698c-.001.438-.399.837-.838.837H4.482c.287 4.681 4.158 8.372 8.913 8.372 4.942 0 8.931-3.988 8.931-8.93 0-2.015-.666-3.861-1.788-5.354-.187-.24-.229-.584-.104-.861s.411-.473.714-.491c.28-.019.567.113.733.34C23.212 8.802 24 11.012 24 13.396 24 19.242 19.242 24 13.395 24zM4.761 12.28c.078-4.015 3.415-7.325 7.518-7.735V1.754C6.378 2.159 1.769 6.695 1.692 12.28h3.069z"/>
</svg>
