<svg 
 xmlns="http://www.w3.org/2000/svg"
 xmlns:xlink="http://www.w3.org/1999/xlink"
 width="27px" height="25px">
<path fill-rule="evenodd"  fill="rgb(15, 15, 15)"
 d="M26.140,10.266 L25.127,10.266 L25.127,24.124 C25.127,24.609 24.742,25.000 24.266,25.000 L2.734,25.000 C2.258,25.000 1.873,24.609 1.873,24.124 L1.873,10.266 L0.860,10.266 C0.384,10.266 0.000,9.874 0.000,9.390 L0.000,5.232 C0.000,4.748 0.384,4.356 0.860,4.356 L3.008,4.356 L3.008,0.876 C3.008,0.391 3.393,-0.000 3.869,-0.000 L7.640,-0.000 C8.116,-0.000 8.501,0.391 8.501,0.876 L8.501,4.356 L18.499,4.356 L18.499,0.876 C18.499,0.391 18.884,-0.000 19.360,-0.000 L23.131,-0.000 C23.607,-0.000 23.992,0.391 23.992,0.876 L23.992,4.356 L26.140,4.356 C26.616,4.356 27.000,4.748 27.000,5.232 L27.000,9.390 C27.000,9.874 26.616,10.266 26.140,10.266 ZM3.594,23.248 L23.406,23.248 L23.406,10.266 L3.594,10.266 L3.594,23.248 ZM6.774,1.752 L4.729,1.752 L4.729,4.356 L6.774,4.356 L6.774,1.752 ZM22.265,1.752 L20.220,1.752 L20.220,4.356 L22.265,4.356 L22.265,1.752 ZM25.279,6.108 L1.721,6.108 L1.721,8.513 L25.279,8.513 L25.279,6.108 ZM21.349,15.268 L20.379,15.268 L20.379,16.256 C20.379,16.741 19.994,17.132 19.519,17.132 C19.043,17.132 18.658,16.741 18.658,16.256 L18.658,15.268 L17.688,15.268 C17.212,15.268 16.827,14.877 16.827,14.392 C16.827,13.907 17.212,13.516 17.688,13.516 L18.658,13.516 L18.658,12.528 C18.658,12.043 19.043,11.651 19.519,11.651 C19.994,11.651 20.379,12.043 20.379,12.528 L20.379,13.516 L21.349,13.516 C21.825,13.516 22.210,13.907 22.210,14.392 C22.210,14.877 21.825,15.268 21.349,15.268 ZM14.428,21.129 C14.263,21.582 13.775,21.806 13.311,21.626 C12.865,21.446 12.646,20.942 12.823,20.489 L14.086,18.214 L11.651,18.214 C11.370,18.214 11.108,18.071 10.949,17.841 C10.784,17.605 10.748,17.306 10.839,17.039 L12.456,12.416 C12.615,11.956 13.103,11.720 13.555,11.881 C14.006,12.043 14.238,12.546 14.080,13.000 L12.871,16.455 L15.349,16.455 C15.636,16.455 15.904,16.598 16.063,16.840 C16.228,17.076 16.258,17.387 16.155,17.654 L14.428,21.129 ZM9.312,15.268 L5.651,15.268 C5.175,15.268 4.790,14.877 4.790,14.392 C4.790,13.907 5.175,13.516 5.651,13.516 L9.312,13.516 C9.788,13.516 10.173,13.907 10.173,14.392 C10.173,14.877 9.788,15.268 9.312,15.268 Z"/>
</svg>