<svg 
 xmlns="http://www.w3.org/2000/svg"
 xmlns:xlink="http://www.w3.org/1999/xlink"
 width="17px" height="26px">
<path fill-rule="evenodd"  fill="rgb(15, 15, 15)"
 d="M0.305,18.872 L0.305,23.463 C0.305,24.483 0.910,26.000 2.579,26.000 L13.713,26.000 C15.380,26.000 15.986,24.483 15.986,23.463 L15.986,18.872 C15.986,14.505 12.242,11.414 11.114,10.256 L11.114,6.800 L12.379,5.939 C12.490,7.019 12.969,8.278 14.251,9.224 C14.400,9.334 14.567,9.386 14.733,9.386 C15.020,9.386 15.302,9.228 15.471,8.936 C15.738,8.477 15.624,7.860 15.216,7.558 C14.199,6.807 14.082,5.856 14.115,5.298 L15.703,4.712 C16.066,4.578 16.311,4.196 16.311,3.766 L16.311,0.995 C16.311,0.446 15.916,-0.000 15.430,-0.000 L6.058,-0.000 C5.901,-0.000 5.746,0.048 5.611,0.137 L2.132,2.450 C1.862,2.629 1.697,2.955 1.697,3.308 L1.697,6.079 C1.697,6.628 2.092,7.074 2.579,7.074 L5.176,7.074 L5.176,10.256 C4.049,11.414 0.305,14.505 0.305,18.872 ZM6.939,7.074 L9.352,7.074 L9.352,9.709 L6.939,9.709 L6.939,7.074 ZM14.223,18.872 L14.223,23.446 C14.205,24.010 13.872,24.010 13.713,24.010 L2.579,24.010 C2.419,24.010 2.086,24.010 2.068,23.463 L2.068,18.872 C2.068,15.310 5.467,12.652 6.393,11.699 L9.898,11.699 C10.824,12.652 14.223,15.310 14.223,18.872 ZM3.460,3.876 L6.298,1.990 L14.548,1.990 L14.548,3.044 L10.093,5.084 L6.058,5.084 L3.460,5.084 L3.460,3.876 Z"/>
</svg>